<?xml version="1.0" ?><svg enable-background="new 0 0 40 40" id="Слой_1" version="1.1" viewBox="0 0 40 40" xml:space="preserve" xmlns="http://www.w3.org/2000/svg" xmlns:xlink="http://www.w3.org/1999/xlink"><g><path d="M14.7,11.8c-0.4,0-0.8-0.3-0.9-0.7c-0.2-0.5,0.1-1.1,0.6-1.3c2.1-0.8,4.5-1.1,7-1.1c2,0,3.9,0.3,5.7,0.7   c0.5,0.1,0.8,0.7,0.7,1.2c-0.1,0.5-0.7,0.8-1.2,0.7c-1.6-0.4-3.4-0.7-5.1-0.7c-2.3,0-4.4,0.3-6.3,1C14.9,11.8,14.8,11.8,14.7,11.8z   "/></g><g><path d="M33.8,35.7h-2.6c-1.5,0-2.6-1.2-2.6-2.6v-2.5c-4.4,1.3-9.5,1.4-13.9,0.2V33c0,1.5-1.2,2.6-2.6,2.6H9.4   c-1.5,0-2.6-1.2-2.6-2.6v-6.5c-0.6-0.6-1.2-1.2-1.7-1.8H2.6c-1.4,0-2.6-1.2-2.6-2.6v-5.6C0,15.2,1.2,14,2.6,14h1   c0.6-1.3,1.5-2.6,2.6-3.7c0.3-2-0.5-3.8-2.4-5.7C3.5,4.4,3.4,4,3.5,3.7S3.9,3.1,4.2,3c4.1-1.1,7.4-0.1,9.8,2.8   c2.3-0.7,4.8-1.1,7.3-1.1c10.3,0,18.7,6,18.7,13.4c0,2.8-1.3,5.6-3.5,7.9v7C36.5,34.5,35.3,35.7,33.8,35.7z M29.6,28.1   c0.2,0,0.4,0.1,0.6,0.2c0.3,0.2,0.4,0.5,0.4,0.8V33c0,0.4,0.3,0.6,0.6,0.6h2.6c0.4,0,0.6-0.3,0.6-0.6v-7.4c0-0.3,0.1-0.5,0.3-0.7   c2.1-2,3.2-4.3,3.2-6.7c0-6.3-7.5-11.4-16.7-11.4c-2.6,0-5.1,0.4-7.4,1.2c-0.4,0.1-0.9,0-1.1-0.4c-1.6-2.3-3.7-3.2-6.4-2.9   C7.9,6.7,8.5,8.8,8.1,11c0,0.2-0.1,0.4-0.3,0.5c-1.2,1.1-2.1,2.4-2.6,3.8C5,15.8,4.6,16,4.2,16H2.6C2.3,16,2,16.3,2,16.6v5.6   c0,0.3,0.3,0.6,0.6,0.6h3c0.3,0,0.6,0.2,0.8,0.4c0.5,0.8,1.2,1.5,2,2.1c0.2,0.2,0.4,0.5,0.4,0.8V33c0,0.4,0.3,0.6,0.6,0.6H12   c0.4,0,0.6-0.3,0.6-0.6v-3.7c0-0.3,0.2-0.6,0.4-0.8c0.3-0.2,0.6-0.2,0.9-0.1c2.3,0.8,4.8,1.2,7.4,1.2c2.8,0,5.5-0.5,7.9-1.4   C29.4,28.1,29.5,28.1,29.6,28.1z"/></g></svg>